<svg xmlns="http://www.w3.org/2000/svg" xmlns:xlink="http://www.w3.org/1999/xlink" version="1.1" x="0px" y="0px" viewBox="0 0 512 512" style="enable-background:new 0 0 512 512;" xml:space="preserve"><g><g><g><path d="M380.52,473.761c-0.004,0.001-0.012,0-0.019,0H132.21c-2.959,0-5.741-1.414-7.486-3.806     c-1.744-2.391-2.241-5.471-1.338-8.289l65.34-203.86c1.229-3.837,4.796-6.439,8.825-6.439h117.611     c4.028,0,7.595,2.602,8.824,6.439l65.155,203.284c0.417,1.055,0.645,2.203,0.645,3.404     C389.785,469.611,385.638,473.761,380.52,473.761z M144.911,455.228h222.89l-59.4-185.328H204.311L144.911,455.228z"/></g><g><path d="M464.494,473.761H47.506c-5.118,0-9.267-4.149-9.267-9.267s4.149-9.267,9.267-9.267h416.988     c5.117,0,9.267,4.149,9.267,9.267S469.611,473.761,464.494,473.761z"/></g><g><path d="M385.728,473.763c-1.326,0-2.675-0.286-3.953-0.891L166.147,370.941c-3.042-1.438-5.066-4.413-5.286-7.771     s1.397-6.571,4.226-8.395l143.747-92.664c4.302-2.773,10.036-1.534,12.81,2.768c2.772,4.302,1.533,10.037-2.769,12.81     l-129.728,83.626l200.547,94.802c4.627,2.188,6.604,7.711,4.418,12.338C392.529,471.803,389.2,473.763,385.728,473.763z"/></g><g><path d="M130.91,473.763c-3.473,0.001-6.801-1.96-8.383-5.309c-2.188-4.627-0.209-10.15,4.417-12.338l200.547-94.802     l-129.728-83.626c-4.301-2.772-5.541-8.508-2.768-12.81c2.772-4.301,8.508-5.54,12.809-2.768l143.747,92.664     c2.829,1.823,4.446,5.036,4.226,8.395c-0.22,3.358-2.244,6.333-5.286,7.771L134.864,472.872     C133.585,473.477,132.236,473.763,130.91,473.763z"/></g><g><path d="M316.231,269.899H195.769c-5.118,0-9.267-4.148-9.267-9.267v-74.131c0-5.118,4.148-9.267,9.267-9.267h120.463     c5.117,0,9.267,4.149,9.267,9.267v74.131C325.498,265.751,321.349,269.899,316.231,269.899z M205.035,251.367h101.93v-55.598     h-101.93V251.367z"/></g><g><path d="M418.162,297.699c-5.117,0-9.267-4.149-9.267-9.267v-27.8c0-5.117,4.149-9.266,9.267-9.266s9.267,4.149,9.267,9.266v27.8     C427.429,293.55,423.279,297.699,418.162,297.699z"/></g><g><path d="M390.363,297.699c-5.117,0-9.267-4.149-9.267-9.267v-27.8c0-5.117,4.149-9.266,9.267-9.266s9.266,4.149,9.266,9.266v27.8     C399.629,293.55,395.48,297.699,390.363,297.699z"/></g><g><path d="M93.838,297.699c-5.118,0-9.267-4.149-9.267-9.267v-27.8c0-5.117,4.149-9.266,9.267-9.266s9.267,4.149,9.267,9.266v27.8     C103.104,293.55,98.956,297.699,93.838,297.699z"/></g><g><path d="M121.637,297.699c-5.118,0-9.267-4.149-9.267-9.267v-27.8c0-5.117,4.148-9.266,9.267-9.266     c5.118,0,9.266,4.149,9.266,9.266v27.8C130.903,293.55,126.755,297.699,121.637,297.699z"/></g><g><path d="M316.231,195.769H195.769c-5.118,0-9.267-4.149-9.267-9.267v-74.131c0-5.118,4.148-9.266,9.267-9.266h120.463     c5.117,0,9.267,4.148,9.267,9.266v74.131C325.498,191.62,321.349,195.769,316.231,195.769z M205.035,177.235h101.93v-55.598     h-101.93V177.235z"/></g><g><path d="M316.231,121.637H195.769c-3.304,0-6.357-1.758-8.015-4.616c-1.658-2.857-1.67-6.38-0.031-9.248l37.065-64.865     c1.65-2.887,4.721-4.669,8.046-4.669h46.332c3.325,0,6.396,1.782,8.046,4.669l37.065,64.865c1.639,2.868,1.627,6.391-0.031,9.248     C322.589,119.879,319.534,121.637,316.231,121.637z M211.736,103.104h88.528l-26.476-46.333h-35.578L211.736,103.104z"/></g><g><path d="M390.363,223.567c-5.117,0-9.267-4.148-9.267-9.266v-27.799c0-5.118,4.149-9.267,9.267-9.267s9.266,4.149,9.266,9.267     v27.799C399.629,219.419,395.48,223.567,390.363,223.567z"/></g><g><path d="M418.162,223.567c-5.117,0-9.267-4.148-9.267-9.266v-27.799c0-5.118,4.149-9.267,9.267-9.267s9.267,4.149,9.267,9.267     v27.799C427.429,219.419,423.279,223.567,418.162,223.567z"/></g><g><path d="M93.838,223.567c-5.118,0-9.267-4.148-9.267-9.266v-27.799c0-5.118,4.149-9.267,9.267-9.267s9.267,4.149,9.267,9.267     v27.799C103.104,219.419,98.956,223.567,93.838,223.567z"/></g><g><path d="M121.637,223.567c-5.118,0-9.267-4.148-9.267-9.266v-27.799c0-5.118,4.148-9.267,9.267-9.267     c5.118,0,9.266,4.149,9.266,9.267v27.799C130.903,219.419,126.755,223.567,121.637,223.567z"/></g><g><path d="M316.223,269.9c-1.657,0-3.333-0.443-4.848-1.375l-120.463-74.132c-4.358-2.682-5.718-8.39-3.036-12.748     c2.682-4.359,8.39-5.718,12.748-3.036l120.463,74.131c4.358,2.682,5.718,8.39,3.035,12.749     C322.373,268.334,319.334,269.9,316.223,269.9z"/></g><g><path d="M195.777,269.9c-3.111,0-6.15-1.566-7.9-4.41c-2.682-4.359-1.323-10.067,3.036-12.749l120.463-74.131     c4.361-2.683,10.067-1.323,12.748,3.036c2.683,4.358,1.323,10.066-3.035,12.748l-120.463,74.132     C199.111,269.457,197.434,269.9,195.777,269.9z"/></g><g><path d="M316.231,195.769H195.769c-5.118,0-9.267-4.149-9.267-9.267v-74.131c0-5.118,4.148-9.266,9.267-9.266h120.463     c5.117,0,9.267,4.148,9.267,9.266v74.131C325.498,191.62,321.349,195.769,316.231,195.769z M205.035,177.235h101.93v-55.598     h-101.93V177.235z"/></g><g><path d="M316.223,195.77c-1.657,0-3.333-0.444-4.848-1.376l-120.463-74.131c-4.358-2.683-5.718-8.39-3.036-12.749     c2.682-4.359,8.39-5.718,12.748-3.035l120.463,74.131c4.358,2.683,5.718,8.39,3.035,12.749     C322.373,194.202,319.334,195.77,316.223,195.77z"/></g><g><path d="M195.777,195.77c-3.111,0-6.15-1.567-7.9-4.411c-2.682-4.358-1.323-10.066,3.036-12.749l120.463-74.131     c4.361-2.683,10.067-1.323,12.748,3.035c2.683,4.358,1.323,10.066-3.035,12.749l-120.463,74.131     C199.111,195.325,197.434,195.77,195.777,195.77z"/></g><g><path d="M418.162,269.899H316.231c-5.117,0-9.267-4.148-9.267-9.267c0-5.117,4.149-9.266,9.267-9.266h73.435l-78.885-57.371     c-4.139-3.01-5.054-8.805-2.043-12.944c3.01-4.139,8.806-5.052,12.943-2.044l101.931,74.131c3.246,2.361,4.604,6.542,3.362,10.36     C425.732,267.316,422.176,269.899,418.162,269.899z"/></g><g><path d="M195.769,269.899H93.838c-4.014,0-7.571-2.583-8.812-6.4c-1.241-3.817,0.116-7.999,3.362-10.36l101.93-74.131     c4.14-3.009,9.935-2.094,12.945,2.044c3.01,4.139,2.095,9.934-2.044,12.944l-78.885,57.371h73.435     c5.118,0,9.266,4.149,9.266,9.266C205.035,265.751,200.886,269.899,195.769,269.899z"/></g><g><path d="M418.162,195.769H316.231c-5.117,0-9.267-4.149-9.267-9.267s4.149-9.267,9.267-9.267h73.435l-78.885-57.371     c-4.139-3.01-5.054-8.805-2.043-12.944c3.01-4.139,8.806-5.053,12.943-2.044l101.931,74.131     c3.246,2.361,4.604,6.542,3.362,10.359C425.732,193.185,422.176,195.769,418.162,195.769z"/></g><g><path d="M195.769,195.769H93.838c-4.014,0-7.571-2.584-8.812-6.401c-1.241-3.817,0.116-7.999,3.362-10.359l101.93-74.131     c4.14-3.008,9.935-2.095,12.945,2.044c3.01,4.139,2.095,9.934-2.044,12.944l-78.885,57.371h73.435     c5.118,0,9.266,4.149,9.266,9.267S200.886,195.769,195.769,195.769z"/></g></g></g></svg>
