<svg xmlns="http://www.w3.org/2000/svg" xmlns:xlink="http://www.w3.org/1999/xlink" version="1.1" x="0px" y="0px" viewBox="0 0 450 450" style="enable-background:new 0 0 450 376.5;" xml:space="preserve"><path d="M226.6,66.3l182.9,150.9c0,0,8.5,6.4,14.1,0l15.1-17.2c0,0,6.6-7.1,0-14.1l-57.9-47.5V30.1c0,0,0-9.4-8.5-9.9  H320c0,0-8.5-0.5-8.5,10.8l-0.5,50.4l-66.8-56.5c0,0-15.1-13.2-35.8,0L13.6,186.3c0,0-5.6,4.2,0,13.7l15.1,17.2c0,0,4.7,6.4,13.7,0  L226.6,66.3z"/><path d="M379.5,337.9V213.2l-153-123.8L72,215.1v124.8c0,20.3,15.5,21.3,15.5,21.3h101.8V257.8h73.1v103.3h101.7  C384.4,360.2,379.5,337.9,379.5,337.9z"/></svg>
