<?xml version="1.0" standalone="no"?>
<!DOCTYPE svg PUBLIC "-//W3C//DTD SVG 20010904//EN"
 "http://www.w3.org/TR/2001/REC-SVG-20010904/DTD/svg10.dtd">
<svg version="1.0" xmlns="http://www.w3.org/2000/svg"
 width="1308.000000pt" height="1552.000000pt" viewBox="0 0 1308.000000 1552.000000"
 preserveAspectRatio="xMidYMid meet">
<metadata>
Created by potrace 1.15, written by Peter Selinger 2001-2017
</metadata>
<g transform="translate(0.000000,1552.000000) scale(0.100000,-0.100000)"
fill="#000000" stroke="none">
<path d="M580 7820 l0 -7140 5930 0 5930 0 0 7140 0 7140 -5930 0 -5930 0 0
-7140z m11760 5410 l0 -1630 -5830 0 -5830 0 0 1630 0 1630 5830 0 5830 0 0
-1630z m-20 -5030 l0 -3300 -5820 0 -5820 0 0 3300 0 3300 5820 0 5820 0 0
-3300z m20 -5410 l0 -2010 -5830 0 -5830 0 0 2010 0 2010 5830 0 5830 0 0
-2010z"/>
<path d="M2475 14123 c-148 -31 -265 -94 -370 -198 -116 -116 -178 -228 -210
-381 -71 -343 122 -697 452 -829 219 -88 471 -67 680 56 70 41 185 154 235
229 155 236 155 564 0 800 -50 75 -165 188 -235 229 -168 99 -369 133 -552 94z
m145 -383 l0 -320 -330 0 -330 0 0 23 c1 55 33 169 69 242 109 222 312 354
574 374 16 1 17 -20 17 -319z m206 289 c179 -54 322 -176 405 -344 36 -73 68
-187 69 -242 l0 -23 -310 0 -310 0 0 315 0 315 39 0 c21 0 70 -9 107 -21z
m-206 -979 l0 -310 -57 6 c-32 3 -89 15 -128 26 -247 70 -430 283 -470 546
l-7 42 331 0 331 0 0 -310z m675 268 c-25 -167 -119 -332 -244 -431 -89 -71
-249 -137 -332 -137 l-39 0 0 305 0 305 311 0 311 0 -7 -42z"/>
<path d="M5195 14123 c-148 -31 -265 -94 -370 -198 -116 -116 -178 -228 -210
-381 -71 -343 122 -697 452 -829 219 -88 471 -67 680 56 70 41 185 154 235
229 155 236 155 564 0 800 -50 75 -165 188 -235 229 -168 99 -369 133 -552 94z
m145 -383 l0 -320 -330 0 -330 0 0 23 c1 55 33 169 69 242 109 222 312 354
574 374 16 1 17 -20 17 -319z m206 289 c179 -54 322 -176 405 -344 36 -73 68
-187 69 -242 l0 -23 -310 0 -310 0 0 315 0 315 39 0 c21 0 70 -9 107 -21z
m-206 -979 l0 -310 -57 6 c-32 3 -89 15 -128 26 -247 70 -430 283 -470 546
l-7 42 331 0 331 0 0 -310z m675 268 c-25 -167 -119 -332 -244 -431 -89 -71
-249 -137 -332 -137 l-39 0 0 305 0 305 311 0 311 0 -7 -42z"/>
<path d="M7915 14123 c-148 -31 -265 -94 -370 -198 -116 -116 -178 -228 -210
-381 -71 -343 122 -697 452 -829 219 -88 471 -67 680 56 70 41 185 154 235
229 155 236 155 564 0 800 -50 75 -165 188 -235 229 -168 99 -369 133 -552 94z
m125 -383 l0 -320 -320 0 -320 0 0 23 c1 55 33 169 69 242 40 82 115 177 180
228 86 69 214 124 321 137 30 4 58 8 63 9 4 0 7 -143 7 -319z m225 288 c176
-50 323 -174 406 -343 36 -73 68 -187 69 -242 l0 -23 -320 0 -320 0 0 319 0
319 48 -5 c26 -2 79 -13 117 -25z m-225 -977 l0 -309 -47 5 c-27 2 -79 13
-118 25 -247 70 -430 283 -470 546 l-7 42 321 0 321 0 0 -309z m695 267 c-25
-167 -119 -332 -244 -431 -89 -71 -233 -130 -343 -140 l-48 -5 0 309 0 309
321 0 321 0 -7 -42z"/>
<path d="M1322 10833 c-76 -37 -103 -131 -59 -206 21 -36 42 -52 118 -92 102
-55 129 -88 110 -137 -23 -61 -108 -78 -196 -39 -26 12 -52 21 -57 21 -5 0 -8
-17 -6 -37 3 -33 8 -41 43 -58 56 -28 166 -27 220 1 59 31 85 75 85 143 0 84
-20 109 -135 167 -92 48 -115 69 -115 110 0 70 78 95 167 55 23 -11 44 -17 47
-13 3 3 6 20 6 38 0 28 -5 34 -40 48 -52 21 -145 20 -188 -1z"/>
<path d="M1698 10840 c-16 -10 -18 -35 -18 -290 l0 -280 40 0 40 0 2 242 3
242 94 -242 94 -242 37 0 37 0 99 243 99 242 3 -243 2 -243 38 3 37 3 3 272
c2 244 1 273 -15 288 -19 20 -87 15 -109 -7 -7 -7 -52 -105 -99 -218 -48 -113
-88 -206 -90 -208 -1 -2 -39 89 -84 202 -45 112 -88 211 -94 220 -15 20 -96
30 -119 16z"/>
<path d="M2593 10838 c-10 -14 -204 -547 -203 -561 0 -5 19 -7 42 -5 l41 3 25
73 24 73 115 -3 116 -3 26 -72 26 -73 42 0 c24 0 43 4 43 9 0 16 -192 545
-203 559 -5 6 -26 12 -47 12 -21 0 -42 -6 -47 -12z m91 -221 l45 -127 -89 0
c-50 0 -90 3 -90 7 0 10 84 252 87 249 1 -1 22 -59 47 -129z"/>
<path d="M3188 10839 c-16 -9 -18 -33 -18 -274 0 -145 3 -270 6 -279 5 -14 29
-16 160 -16 95 0 154 4 155 10 1 6 2 17 2 25 0 8 -1 20 -2 25 -1 6 -49 10
-121 10 l-121 0 3 98 3 97 103 3 102 3 0 29 0 29 -102 3 -103 3 0 85 0 85 118
3 118 3 -3 32 -3 32 -140 2 c-83 2 -147 -2 -157 -8z"/>
<path d="M3627 10838 c-16 -12 -17 -35 -15 -288 l3 -275 38 -3 37 -3 0 233 0
233 118 -212 c64 -117 125 -222 134 -233 22 -25 93 -28 102 -4 3 9 6 136 6
284 0 260 -1 269 -20 275 -11 3 -29 3 -40 0 -19 -6 -20 -15 -20 -228 -1 -207
-2 -220 -16 -192 -69 132 -218 396 -229 405 -22 18 -78 23 -98 8z"/>
<path d="M4208 10839 c-16 -9 -18 -33 -18 -277 0 -195 3 -271 12 -280 15 -15
307 -17 309 -2 1 6 2 17 2 25 0 8 -1 20 -2 25 -1 6 -49 10 -121 10 l-121 0 3
98 3 97 103 3 102 3 0 29 0 29 -102 3 -103 3 0 85 0 85 118 3 118 3 -3 32 -3
32 -140 2 c-83 2 -147 -2 -157 -8z"/>
<path d="M4647 10838 c-16 -12 -17 -35 -15 -288 l3 -275 38 -3 37 -3 0 125 0
126 44 0 c65 0 93 -28 141 -146 l40 -99 44 -3 c42 -3 43 -3 37 23 -13 50 -85
208 -105 229 -25 26 -26 36 -7 36 8 0 28 17 45 37 26 32 31 46 31 91 0 111
-52 149 -217 158 -74 5 -102 3 -116 -8z m209 -83 c50 -32 53 -94 7 -136 -20
-20 -35 -24 -86 -24 l-62 0 -3 79 c-4 109 -3 110 64 103 31 -3 67 -13 80 -22z"/>
<path d="M5270 10841 c-130 -42 -197 -153 -188 -314 5 -96 27 -145 86 -199 53
-48 101 -63 197 -62 93 1 155 21 172 55 16 30 17 222 3 250 -10 17 -22 19
-115 19 l-105 0 0 -35 0 -35 70 0 70 0 0 -80 c0 -77 -1 -81 -26 -90 -37 -14
-119 -12 -157 4 -70 30 -110 105 -109 206 0 76 18 123 64 167 64 61 143 70
240 26 68 -30 89 -23 72 24 -14 43 -74 67 -169 70 -44 1 -91 -1 -105 -6z"/>
<path d="M5605 10840 c-4 -6 32 -87 79 -180 l86 -168 0 -111 0 -111 40 0 40 0
0 110 0 110 85 171 c47 93 83 174 80 179 -4 6 -22 10 -41 10 l-35 0 -62 -130
c-34 -71 -64 -130 -67 -129 -3 0 -33 58 -67 129 l-62 130 -35 0 c-19 0 -38 -5
-41 -10z"/>
<path d="M6328 10840 c-16 -10 -18 -35 -18 -290 l0 -280 40 0 40 0 2 242 3
242 94 -242 94 -242 37 0 37 0 99 243 99 242 3 -243 2 -243 38 3 37 3 3 272
c2 244 1 273 -15 288 -19 20 -87 15 -109 -7 -7 -7 -52 -105 -99 -218 -48 -113
-88 -206 -90 -208 -1 -2 -39 89 -84 202 -45 112 -88 211 -94 220 -15 20 -96
30 -119 16z"/>
<path d="M7088 10839 c-16 -9 -18 -33 -18 -277 0 -195 3 -271 12 -280 15 -15
307 -17 309 -2 1 6 2 17 2 25 0 8 -1 20 -2 25 -1 6 -49 10 -121 10 l-121 0 3
98 3 97 103 3 102 3 0 29 0 29 -102 3 -103 3 0 85 0 85 118 3 118 3 -3 32 -3
32 -140 2 c-83 2 -147 -2 -157 -8z"/>
<path d="M7452 10838 c-7 -7 -12 -19 -12 -28 0 -31 23 -40 102 -40 l78 0 0
-250 0 -250 40 0 40 0 0 250 0 250 80 0 c74 0 81 2 89 23 5 12 5 30 -1 40 -8
15 -28 17 -206 17 -141 0 -201 -3 -210 -12z"/>
<path d="M7968 10839 c-16 -9 -18 -33 -18 -277 0 -195 3 -271 12 -280 15 -15
307 -17 309 -2 1 6 2 17 2 25 0 8 -1 20 -2 25 -1 6 -49 10 -121 10 l-121 0 3
98 3 97 103 3 102 3 0 29 0 29 -102 3 -103 3 0 85 0 85 118 3 118 3 -3 32 -3
32 -140 2 c-83 2 -147 -2 -157 -8z"/>
<path d="M8407 10838 c-16 -12 -17 -35 -15 -288 l3 -275 38 -3 37 -3 0 125 0
126 44 0 c65 0 93 -28 141 -146 l40 -99 44 -3 c42 -3 43 -3 37 23 -13 50 -85
208 -105 229 -25 26 -26 36 -7 36 8 0 28 17 45 37 26 32 31 46 31 91 0 111
-52 149 -217 158 -74 5 -102 3 -116 -8z m209 -83 c50 -32 53 -94 7 -136 -20
-20 -35 -24 -86 -24 l-62 0 -3 79 c-4 109 -3 110 64 103 31 -3 67 -13 80 -22z"/>
<path d="M1689 9287 c-126 -36 -230 -138 -269 -265 -61 -196 25 -394 210 -485
59 -29 73 -32 160 -32 87 0 101 3 160 32 106 52 177 133 210 241 60 193 -25
394 -205 483 -72 35 -192 47 -266 26z"/>
<path d="M5540 7410 l0 -1550 3120 0 3120 0 0 1550 0 1550 -3120 0 -3120 0 0
-1550z m6140 0 l0 -1450 -3020 0 -3020 0 0 1450 0 1450 3020 0 3020 0 0 -1450z"/>
<path d="M1697 8210 c-111 -28 -209 -110 -260 -218 -29 -61 -32 -76 -32 -162
0 -86 3 -101 32 -162 40 -85 106 -151 191 -191 61 -29 76 -32 162 -32 86 0
101 3 162 32 85 40 151 106 191 191 29 61 32 76 32 162 0 86 -3 101 -32 162
-63 134 -185 217 -331 224 -42 2 -94 -1 -115 -6z"/>
<path d="M1697 7150 c-111 -28 -209 -110 -260 -218 -29 -61 -32 -76 -32 -162
0 -86 3 -101 32 -162 40 -85 106 -151 191 -191 61 -29 76 -32 162 -32 86 0
101 3 162 32 85 40 151 106 191 191 29 61 32 76 32 162 0 86 -3 101 -32 162
-63 134 -185 217 -331 224 -42 2 -94 -1 -115 -6z"/>
<path d="M2345 3064 c-88 -19 -218 -80 -296 -140 -120 -92 -226 -253 -266
-404 -24 -90 -24 -292 0 -380 41 -152 146 -312 266 -404 370 -285 905 -161
1112 259 59 121 74 189 74 335 -1 146 -16 216 -74 335 -149 303 -486 468 -816
399z m135 -394 l0 -330 -321 0 -322 0 7 62 c31 272 226 503 481 572 33 9 76
17 95 19 19 2 41 5 48 5 9 2 12 -70 12 -328z m215 300 c145 -43 293 -163 376
-305 37 -63 76 -183 85 -263 l7 -62 -312 0 -311 0 0 328 0 328 58 -7 c31 -4
75 -13 97 -19z m-215 -1000 l0 -309 -52 6 c-205 21 -391 144 -499 328 -31 54
-72 174 -83 243 l-6 42 320 0 320 0 0 -310z m674 268 c-45 -297 -274 -530
-556 -567 l-58 -7 0 308 0 308 310 0 310 0 -6 -42z"/>
<path d="M5065 3064 c-88 -19 -218 -80 -296 -140 -120 -92 -225 -252 -266
-404 -24 -88 -24 -290 0 -380 40 -151 146 -312 266 -404 370 -285 905 -161
1112 259 59 120 74 189 74 335 0 146 -15 215 -74 335 -149 303 -486 468 -816
399z m135 -394 l0 -330 -321 0 -322 0 7 62 c31 272 226 503 481 572 33 9 76
17 95 19 19 2 41 5 48 5 9 2 12 -70 12 -328z m215 300 c145 -43 293 -163 376
-305 37 -63 76 -183 85 -263 l7 -62 -312 0 -311 0 0 328 0 328 58 -7 c31 -4
75 -13 97 -19z m-215 -1000 l0 -309 -52 6 c-205 21 -391 144 -499 328 -31 54
-72 174 -83 243 l-6 42 320 0 320 0 0 -310z m674 268 c-45 -297 -274 -530
-556 -567 l-58 -7 0 308 0 308 310 0 310 0 -6 -42z"/>
<path d="M7775 3064 c-477 -106 -727 -614 -521 -1059 87 -188 276 -344 486
-401 90 -25 290 -25 380 0 260 71 465 276 536 536 25 90 25 290 0 380 -71 258
-277 466 -531 535 -87 24 -264 28 -350 9z m145 -394 l0 -330 -331 0 -332 0 7
63 c25 215 162 416 352 514 108 56 169 73 287 82 16 1 17 -21 17 -329z m191
304 c86 -25 207 -93 270 -152 116 -107 197 -267 215 -419 l7 -63 -312 0 -311
0 0 325 0 325 38 0 c21 0 63 -7 93 -16z m-191 -1004 l0 -310 -57 6 c-260 27
-490 211 -566 455 -14 46 -29 101 -32 122 l-6 37 331 0 330 0 0 -310z m675
273 c-24 -151 -105 -304 -214 -405 -94 -87 -268 -168 -363 -168 l-38 0 0 305
0 305 310 0 311 0 -6 -37z"/>
<path d="M10495 3064 c-478 -106 -730 -620 -519 -1061 91 -191 274 -342 484
-399 90 -25 290 -25 380 0 260 71 465 276 536 536 13 46 18 101 18 190 0 142
-15 211 -70 327 -90 189 -275 342 -479 398 -87 24 -264 28 -350 9z m145 -394
l0 -330 -331 0 -332 0 7 63 c25 215 162 416 352 514 108 56 169 73 287 82 16
1 17 -21 17 -329z m191 304 c86 -25 207 -93 270 -152 116 -107 197 -267 215
-419 l7 -63 -312 0 -311 0 0 325 0 325 38 0 c21 0 63 -7 93 -16z m-191 -1004
l0 -310 -57 6 c-260 27 -490 211 -566 455 -14 46 -29 101 -32 122 l-6 37 331
0 330 0 0 -310z m675 273 c-24 -151 -105 -304 -214 -405 -94 -87 -268 -168
-363 -168 l-38 0 0 305 0 305 310 0 311 0 -6 -37z"/>
</g>
</svg>
