<?xml version="1.0" standalone="no"?>
<!DOCTYPE svg PUBLIC "-//W3C//DTD SVG 20010904//EN"
 "http://www.w3.org/TR/2001/REC-SVG-20010904/DTD/svg10.dtd">
<svg version="1.0" xmlns="http://www.w3.org/2000/svg"
 width="2000.000000pt" height="1314.000000pt" viewBox="0 0 2000.000000 1314.000000"
 preserveAspectRatio="xMidYMid meet">
<metadata>
Created by potrace 1.15, written by Peter Selinger 2001-2017
</metadata>
<g transform="translate(0.000000,1314.000000) scale(0.100000,-0.100000)"
fill="#000000" stroke="none">
<path d="M2345 12123 c-236 -20 -479 -103 -672 -229 -331 -214 -542 -516 -636
-909 l-22 -90 -2 -4672 -3 -4672 222 133 c1466 877 3289 1752 5083 2441 3463
1330 6998 2103 10470 2290 527 28 810 36 1508 42 l697 6 0 2833 0 2834 -8302
-2 c-4567 -1 -8321 -3 -8343 -5z m4001 -2483 c211 -503 403 -959 425 -1013 23
-54 45 -95 49 -90 4 4 202 461 441 1015 l434 1008 213 0 c116 0 212 -2 212 -5
0 -9 510 -3118 516 -3147 l6 -28 -310 0 -310 0 -10 68 c-5 37 -67 466 -138
954 -70 488 -130 885 -133 883 -2 -3 -194 -440 -426 -972 l-421 -968 -88 0
-88 0 -411 972 c-226 535 -412 971 -414 970 -1 -2 -68 -401 -148 -888 -79
-486 -150 -914 -156 -951 l-11 -68 -304 0 c-167 0 -304 4 -304 9 0 4 128 715
285 1580 157 864 285 1576 285 1581 0 7 74 9 211 8 l211 -3 384 -915z m4432
848 c88 -212 1272 -3099 1272 -3103 0 -3 -147 -4 -326 -3 l-326 3 -131 327
-132 328 -638 -3 -638 -2 -137 -327 -137 -327 -324 -1 c-304 0 -323 1 -317 18
4 9 307 725 673 1590 l667 1572 232 0 231 0 31 -72z m-6949 46 c203 -30 425
-120 592 -240 131 -95 135 -64 -37 -290 -82 -108 -152 -202 -156 -207 -4 -6
-35 16 -76 54 -81 77 -162 129 -252 160 -92 32 -277 33 -364 1 -84 -31 -152
-78 -197 -134 -94 -119 -90 -270 10 -367 66 -64 170 -116 437 -219 398 -155
553 -247 684 -411 200 -250 234 -668 81 -1006 -65 -142 -201 -300 -334 -388
-324 -215 -821 -247 -1183 -78 -121 57 -215 123 -325 229 -87 83 -221 243
-218 260 2 10 372 365 384 368 6 2 28 -26 50 -62 22 -36 76 -101 121 -144 200
-193 499 -253 721 -145 122 60 197 150 229 275 47 184 -31 360 -201 455 -58
32 -99 49 -420 171 -409 155 -608 314 -690 551 -83 240 -39 568 105 778 49 71
148 172 215 220 122 86 287 152 440 174 99 14 270 12 384 -5z"/>
<path d="M10282 9083 l-221 -548 436 -3 c240 -1 438 -1 439 1 6 5 -419 1097
-426 1097 -4 0 -106 -246 -228 -547z"/>
<path d="M17795 5689 c-4090 -84 -8337 -1030 -12405 -2761 -1270 -541 -2697
-1257 -3683 -1848 l-107 -65 8017 -3 c5975 -2 8042 0 8113 9 463 55 871 335
1094 750 57 105 99 220 134 359 l26 105 3 1726 3 1726 -217 6 c-246 8 -472 7
-978 -4z"/>
</g>
</svg>
