<svg xmlns:dc="http://purl.org/dc/elements/1.1/" xmlns:cc="http://creativecommons.org/ns#" xmlns:rdf="http://www.w3.org/1999/02/22-rdf-syntax-ns#" xmlns:svg="http://www.w3.org/2000/svg" xmlns="http://www.w3.org/2000/svg" xmlns:sodipodi="http://sodipodi.sourceforge.net/DTD/sodipodi-0.dtd" xmlns:inkscape="http://www.inkscape.org/namespaces/inkscape" version="1.1" x="0px" y="0px" viewBox="0 0 100 100"><g transform="translate(0,-952.36218)"><g transform="translate(7.0033078,959.32903)"><path d="m 43.015747,0.03543307 c -1.559055,0 -2.976378,1.45275603 -2.940945,3.01181123 l 0,12.0118117 c -0.03543,1.559055 1.417323,3.047244 2.976378,3.047244 1.594488,0 3.011811,-1.488189 3.011811,-3.047244 l 0,-12.0118117 C 46.062991,1.452756 44.610235,0 43.015747,0.03543307 z M 12.720472,12.578741 c -1.169291,1.240158 -1.027559,3.295276 0,4.322835 l 8.468504,8.468504 c 1.098425,1.240158 3.224409,1.311024 4.393701,0.141733 1.133858,-1.169292 1.062992,-3.295276 -0.177166,-4.358268 l -8.43307,-8.503938 c -1.594489,-1.240157 -2.728347,-1.062992 -4.251969,-0.07087 z m 56.444881,0.07087 -8.468504,8.503938 c -1.204724,1.062992 -1.311024,3.188976 -0.141732,4.358268 1.133858,1.169291 3.259842,1.098425 4.358267,-0.141733 l 8.468504,-8.468504 c 1.169291,-1.700788 1.027559,-3.011811 -0.03543,-4.358268 -1.523622,-1.133858 -2.870079,-0.814961 -4.181102,0.106299 z M 43.05118,20.090553 c -12.614173,0 -22.925196,10.311024 -22.925196,22.960631 0,12.649607 10.311023,22.996064 22.925196,22.996064 12.649606,0 22.96063,-10.346457 22.96063,-22.996064 0,-12.649607 -10.311024,-22.960631 -22.96063,-22.960631 z m 0,5.988189 c 9.425197,0 16.972441,7.547244 16.972441,16.972442 0,9.425197 -7.547244,17.007875 -16.972441,17.007875 -9.389763,0 -16.937007,-7.582678 -16.937007,-17.007875 0,-9.425198 7.547244,-16.972442 16.937007,-16.972442 z M 2.8346456,40.039373 C 1.2755905,40.110239 -0.07086614,41.598428 0,43.192916 c 0.07086614,1.559055 1.5944882,2.905512 3.1535432,2.834646 l 11.9763778,0 c 1.559055,0.03543 3.047244,-1.417323 3.047244,-3.011811 0,-1.559055 -1.488189,-3.011811 -3.047244,-2.976378 -4.074803,0 -8.2204723,0 -12.2952754,0 z m 67.8543294,0 c -1.559055,0.07087 -2.940945,1.559055 -2.834646,3.153543 0.07087,1.559055 1.559055,2.905512 3.153543,2.834646 l 11.940945,0 c 1.594488,0.03543 3.047244,-1.417323 3.047244,-3.011811 0,-1.559055 -1.452756,-3.011811 -3.047244,-2.976378 -4.074803,0 -8.220472,0 -12.259842,0 z m -49.499999,20.657481 -8.468504,8.468505 c -1.098425,1.098425 -1.098425,3.11811 0,4.251969 1.098425,1.098425 3.11811,1.098425 4.251969,0 l 8.43307,-8.468505 c 1.240158,-1.771653 1.027559,-3.153543 -0.212598,-4.5 -1.452756,-0.992126 -2.76378,-0.602362 -4.003937,0.248031 z m 39.614172,-0.177165 c -1.240157,1.204725 -1.169291,3.366142 -0.106299,4.429134 l 8.468504,8.468505 c 1.098425,1.098425 3.11811,1.098425 4.216535,0 1.133858,-1.133859 1.133858,-3.153544 0,-4.251969 l -8.468504,-8.468505 c -1.488189,-1.169291 -2.692913,-0.992126 -4.110236,-0.177165 z m -17.787401,7.440945 c -1.559055,0.03543 -2.976378,1.48819 -2.940945,3.047245 l 0,11.976378 c -0.03543,1.594489 1.417323,3.047245 2.976378,3.047245 1.594488,0 3.011811,-1.452756 3.011811,-3.047245 l 0,-11.976378 c 0,-1.594489 -1.452756,-3.047245 -3.047244,-3.047245 z" style="" fill="#000000" fill-opacity="1" fill-rule="nonzero" stroke="none"/></g></g></svg>
